<mxfile host="65bd71144e">
    <diagram id="sBNmoWY5w-DBWsgsmSgm" name="Page-1">
        <mxGraphModel dx="1527" dy="612" grid="1" gridSize="10" guides="1" tooltips="1" connect="1" arrows="1" fold="1" page="1" pageScale="1" pageWidth="850" pageHeight="1100" math="0" shadow="0">
            <root>
                <mxCell id="0"/>
                <mxCell id="1" parent="0"/>
                <mxCell id="11" value="" style="group" vertex="1" connectable="0" parent="1">
                    <mxGeometry x="90" y="200" width="514" height="120" as="geometry"/>
                </mxCell>
                <mxCell id="6" value="Work day example" style="swimlane;childLayout=stackLayout;horizontal=1;fillColor=none;horizontalStack=1;resizeParent=1;resizeParentMax=0;resizeLast=0;collapsible=0;strokeColor=none;stackBorder=10;stackSpacing=-12;resizable=1;align=center;points=[];whiteSpace=wrap;html=1;" vertex="1" parent="11">
                    <mxGeometry width="522" height="120" as="geometry"/>
                </mxCell>
                <mxCell id="7" value="pre-work &lt;br&gt;session" style="shape=step;perimeter=stepPerimeter;fixedSize=1;points=[];whiteSpace=wrap;html=1;" vertex="1" parent="6">
                    <mxGeometry x="10" y="33" width="110" height="77" as="geometry"/>
                </mxCell>
                <mxCell id="8" value="standup&amp;nbsp;&lt;br&gt;meeting" style="shape=step;perimeter=stepPerimeter;fixedSize=1;points=[];whiteSpace=wrap;html=1;" vertex="1" parent="6">
                    <mxGeometry x="108" y="33" width="100" height="77" as="geometry"/>
                </mxCell>
                <mxCell id="9" value="morning&lt;br&gt;worksession" style="shape=step;perimeter=stepPerimeter;fixedSize=1;points=[];whiteSpace=wrap;html=1;" vertex="1" parent="6">
                    <mxGeometry x="196" y="33" width="164" height="77" as="geometry"/>
                </mxCell>
                <mxCell id="10" value="afternoon&lt;br&gt;worksession-1" style="shape=step;perimeter=stepPerimeter;fixedSize=1;points=[];whiteSpace=wrap;html=1;" vertex="1" parent="6">
                    <mxGeometry x="348" y="33" width="164" height="77" as="geometry"/>
                </mxCell>
            </root>
        </mxGraphModel>
    </diagram>
</mxfile>